HIERARCHY
ROOT Bip001_Pelvis
{
  OFFSET 32.8599 95.8771 -27.9544
  CHANNELS 6 Xposition Yposition Zposition Zrotation Xrotation Yrotation
  JOINT Bip001_Spine
  {
    OFFSET 1.4188e-005 10.2191 -0.0116013
    CHANNELS 3 Zrotation Xrotation Yrotation
    JOINT Bip001_L_Thigh
    {
      OFFSET 11.0458 -10.2191 0.0116197
      CHANNELS 3 Zrotation Xrotation Yrotation
      JOINT Bip001_L_Calf
      {
        OFFSET -0.707118 -44.0221 0.360014
        CHANNELS 3 Zrotation Xrotation Yrotation
        JOINT Bip001_L_Foot
        {
          OFFSET -0.651902 -40.5938 -3.56146
          CHANNELS 3 Zrotation Xrotation Yrotation
          JOINT Bip001_L_Toe0
          {
            OFFSET 0.0530839 -10.2181 13.1504
            CHANNELS 3 Zrotation Xrotation Yrotation
            End Site
            {
              OFFSET -1.02532e-005 0 7.55606
            }
          }
        }
      }
    }
    JOINT Bip001_R_Thigh
    {
      OFFSET -11.0458 -10.2191 0.0115893
      CHANNELS 3 Zrotation Xrotation Yrotation
      JOINT Bip001_R_Calf
      {
        OFFSET 0.706994 -44.0221 0.35984
        CHANNELS 3 Zrotation Xrotation Yrotation
        JOINT Bip001_R_Foot
        {
          OFFSET 0.651787 -40.5938 -3.5613
          CHANNELS 3 Zrotation Xrotation Yrotation
          JOINT Bip001_R_Toe0
          {
            OFFSET -0.0531479 -10.2181 13.1504
            CHANNELS 3 Zrotation Xrotation Yrotation
            End Site
            {
              OFFSET -1.02894e-005 0 7.55606
            }
          }
        }
      }
    }
    JOINT Bip001_Spine1
    {
      OFFSET 1.87041e-005 14.5736 1.08638
      CHANNELS 3 Zrotation Xrotation Yrotation
      JOINT Bip001_Spine2
      {
        OFFSET 2.24614e-005 14.5058 -1.69078
        CHANNELS 3 Zrotation Xrotation Yrotation
        JOINT Bip001_Neck
        {
          OFFSET 2.20278e-005 15.3945 -0.489414
          CHANNELS 3 Zrotation Xrotation Yrotation
          JOINT Bip001_L_Clavicle
          {
            OFFSET 6.06036 -0.000579998 0.00836775
            CHANNELS 3 Zrotation Xrotation Yrotation
            JOINT Bip001_L_UpperArm
            {
              OFFSET 11.5509 -0.0600302 0.00193952
              CHANNELS 3 Zrotation Xrotation Yrotation
              JOINT Bip001_L_Forearm
              {
                OFFSET 25.9523 0.0806089 -2.15551
                CHANNELS 3 Zrotation Xrotation Yrotation
                JOINT Bip001_L_Hand
                {
                  OFFSET 32.2475 0.153767 1.63968
                  CHANNELS 3 Zrotation Xrotation Yrotation
                  JOINT Bip001_L_Finger0
                  {
                    OFFSET 6.04639 -2.20976 5.90322
                    CHANNELS 3 Zrotation Xrotation Yrotation
                    End Site
                    {
                      OFFSET 4.22375 -1.43895 0.606486
                    }
                  }
                  JOINT Bip001_L_Finger1
                  {
                    OFFSET 11.0826 -0.704819 -0.198153
                    CHANNELS 3 Zrotation Xrotation Yrotation
                    End Site
                    {
                      OFFSET 6.20027 -0.397518 -0.0787166
                    }
                  }
                }
              }
            }
          }
          JOINT Bip001_R_Clavicle
          {
            OFFSET -6.06036 -0.000563197 0.00835105
            CHANNELS 3 Zrotation Xrotation Yrotation
            JOINT Bip001_R_UpperArm
            {
              OFFSET -11.5509 -0.0599978 0.00190698
              CHANNELS 3 Zrotation Xrotation Yrotation
              JOINT Bip001_R_Forearm
              {
                OFFSET -25.9523 0.0806819 -2.1559
                CHANNELS 3 Zrotation Xrotation Yrotation
                JOINT Bip001_R_Hand
                {
                  OFFSET -32.2476 0.153857 1.63991
                  CHANNELS 3 Zrotation Xrotation Yrotation
                  JOINT Bip001_R_Finger0
                  {
                    OFFSET -6.04642 -2.20975 5.9032
                    CHANNELS 3 Zrotation Xrotation Yrotation
                    End Site
                    {
                      OFFSET -4.22376 -1.43894 0.606473
                    }
                  }
                  JOINT Bip001_R_Finger1
                  {
                    OFFSET -11.0826 -0.70479 -0.198183
                    CHANNELS 3 Zrotation Xrotation Yrotation
                    End Site
                    {
                      OFFSET -6.20028 -0.397501 -0.0787337
                    }
                  }
                }
              }
            }
          }
          JOINT Bip001_Head
          {
            OFFSET 1.09673e-005 11.2744 2.05948
            CHANNELS 3 Zrotation Xrotation Yrotation
            End Site
            {
              OFFSET 2.89576e-005 20.8808 -2.77728e-005
            }
          }
        }
      }
    }
  }
}
MOTION
Frames:	16
Frame Time:	0.04
33.1564 95.9015 -27.9399 0.450219 -0.535488 1.18141 -0.208314 2.23719 -0.190448 4.71393 -2.03045 6.69711 -0.514863 6.33881 -9.79461 4.46535 -2.53332 -0.125274 -1.70867 -4.53904 2.96607 -3.44736 -2.60376 -0.26359 0.468089 10.1976 0.0947382 -5.85576 -9.53486 1.34742 2.20849 -7.43907 2.25521 -0.413899 4.46657 -0.375046 -0.413898 4.46658 -0.375052 1.31612 -9.32167 -2.95754 -26.0734 9.55749 2.1846 -56.8249 46.1103 3.78748 17.4466 0.981015 -22.1978 8.63652 1.9668 -3.87008 1.76556e-031 -6.36111e-015 1.59028e-015 3.18055e-015 -3.18056e-015 1.59028e-015 27.0861 16.4868 14.5772 47.3967 33.8731 5.33527 -7.85624 9.48308 5.82777 -10.4274 15.2414 18.3843 3.18055e-015 -3.97569e-015 1.19271e-015 3.18055e-015 -3.18056e-015 7.95139e-016 -0.789216 -4.27434 -2.42129 
33.1956 95.8909 -27.976 0.494254 -0.534528 1.13492 -0.210007 2.2372 -0.147089 4.60413 -1.98786 6.71231 -0.572366 6.1428 -9.90478 5.19112 -1.93038 -0.173023 -1.37554 -5.10586 2.69107 -3.50833 -2.72085 -0.206597 0.438062 10.345 0.0643674 -5.86219 -9.57619 1.30304 2.20952 -7.46494 2.25535 -0.415819 4.47014 -0.286323 -0.415301 4.47015 -0.286262 1.17617 -9.42402 -2.99173 -25.8141 9.66234 2.21151 -56.9983 45.7396 3.81624 17.5146 1.19452 -22.3572 8.86181 1.83891 -3.97179 -6.36111e-015 3.18055e-015 -0 -6.36111e-015 0 -1.59028e-015 27.1765 16.7702 15.0917 46.1737 33.6792 4.56359 -10.1576 9.43916 8.4375 -9.57466 16.4556 19.1784 3.18055e-015 3.97569e-016 -1.98785e-016 6.36111e-015 0 3.97569e-016 -0.760673 -4.20113 -2.48918 
33.251 95.9033 -28.0304 0.489526 -0.510576 1.22578 -0.204219 2.23104 -0.139783 4.63236 -2.21528 6.84231 -0.534868 6.51271 -9.96574 4.42139 -2.60668 -0.117458 -1.67369 -4.53172 2.91094 -3.52388 -2.71587 -0.322587 0.402282 10.2534 0.0594868 -5.83803 -9.48511 1.31974 2.21168 -7.49505 2.25987 -0.398208 4.46256 -0.274343 -0.397963 4.46256 -0.27422 1.14832 -9.40563 -3.00291 -25.8066 9.60315 2.34503 -56.8969 45.6713 3.78347 17.4789 1.14934 -22.4555 8.85257 1.86726 -4.00425 -3.18055e-015 6.36111e-015 1.59028e-015 -3.18055e-015 6.36111e-015 -0 26.6553 16.8614 15.7477 45.6215 32.4258 3.98229 -13.1732 8.27144 12.1993 -11.2236 19.774 18.3412 -3.18055e-015 4.22417e-016 8.69683e-017 -3.18055e-015 -4.72114e-016 4.96962e-017 -0.697367 -4.1439 -2.51853 
33.2948 95.9009 -28.0864 0.469776 -0.467347 1.31668 -0.20386 2.21028 -0.123665 4.65395 -2.36869 6.96254 -0.55693 6.69374 -10.1837 4.53806 -2.61345 -0.114975 -1.66018 -4.55276 2.9038 -3.519 -2.73239 -0.398239 0.382664 10.2063 -0.0177954 -5.79624 -9.4384 1.31693 2.21979 -7.52624 2.29805 -0.400906 4.40894 -0.239615 -0.400488 4.40895 -0.23972 1.21318 -9.17741 -3.04369 -25.9107 9.3103 2.49446 -56.7373 45.7046 3.70798 17.5004 1.19609 -22.3862 8.90191 2.01809 -4.04885 2.64834e-031 -9.54166e-015 1.59028e-015 -0 -1.27222e-014 -0 25.8902 16.7248 16.4895 45.2252 29.7643 3.49344 -15.9973 5.64123 17.8286 -15.0343 21.2388 18.5849 6.36111e-015 5.96354e-016 -7.45442e-016 3.18055e-015 1.98785e-016 2.73329e-016 -0.641863 -4.24944 -2.55333 
33.3104 95.9425 -28.1482 0.445261 -0.469121 1.42442 -0.204798 2.21249 -0.0807923 4.813 -2.27495 6.01664 -0.939675 6.37515 -9.22223 4.30488 -2.60695 -0.113313 -1.71943 -4.36614 2.9072 -3.49202 -2.60138 -0.616594 0.340522 9.8847 -0.00392969 -5.75284 -9.23551 1.41265 2.23438 -7.5496 2.28031 -0.407084 4.4119 -0.15412 -0.406812 4.41192 -0.15401 1.28041 -9.20522 -3.1126 -26.0648 9.24753 2.7404 -56.5063 45.7341 3.50013 17.5799 1.20528 -22.331 8.95411 1.91337 -4.04864 0 0 -0 -0 0 1.59028e-015 24.9079 16.7661 17.1446 45.2491 26.2481 3.15418 -18.478 0.947459 25.8572 -20.023 23.3583 21.0293 -6.36111e-015 1.39149e-015 -1.98785e-016 -6.36111e-015 1.98785e-016 -5.96354e-016 -0.640931 -4.37313 -2.60615 
33.3347 95.929 -28.2276 0.443907 -0.476214 1.60702 -0.205591 2.21444 -0.0424092 4.8531 -2.53768 5.97034 -0.976256 6.74493 -9.31111 4.18031 -2.86899 -0.112363 -1.78176 -4.18614 2.96929 -3.48916 -2.69736 -0.967156 0.267283 10.0417 0.0497848 -5.72823 -9.28337 1.48355 2.23806 -7.57752 2.30159 -0.412276 4.43556 -0.0771596 -0.412283 4.43557 -0.0770261 1.19733 -9.21769 -3.17246 -26.0479 9.21672 2.87293 -56.2498 45.3412 3.25782 17.6334 1.42472 -22.4119 9.04262 1.70796 -4.05043 -8.82781e-032 3.18055e-015 1.59028e-015 8.82782e-032 -3.18056e-015 1.59028e-015 24.35 16.8365 17.7557 45.0221 22.0337 3.34386 -20.4674 -2.5643 36.1399 -26.9248 25.3669 25.002 -2.75869e-032 1.98785e-015 7.95139e-016 0 1.19271e-015 -0 -0.539383 -4.59479 -2.70419 
33.3099 95.9275 -28.2969 0.472776 -0.49706 1.85524 -0.205566 2.21625 -0.0182964 4.76892 -2.61499 6.24927 -0.796507 6.73248 -9.92049 4.28936 -2.64193 -0.112044 -1.68837 -4.38093 2.88506 -3.47188 -2.71199 -1.40954 0.157815 10.1328 0.106183 -5.70792 -9.32432 1.60947 2.23959 -7.60263 2.30967 -0.41489 4.43555 -0.0284239 -0.415167 4.43555 -0.0284903 0.964058 -9.14069 -3.1793 -25.7642 9.15658 2.86886 -56.2518 44.9098 3.17626 17.7307 1.73746 -22.5417 8.92731 1.60655 -4.17949 3.18055e-015 -3.18055e-015 -1.59028e-015 6.36111e-015 -1.27222e-014 -1.59028e-015 24.2639 16.8503 18.2677 44.443 17.0676 5.16471 -20.4109 -4.76836 46.8212 -35.299 25.9065 29.3992 1.59028e-015 -3.37934e-015 3.18055e-015 1.59028e-015 -4.57205e-015 4.77083e-015 -0.358329 -4.59216 -2.79711 
33.253 95.93 -28.3573 0.507309 -0.512328 2.18301 -0.20455 2.21753 -0.00530218 4.79803 -2.70065 6.34374 -0.812936 6.73614 -10.3325 4.22872 -2.59694 -0.111546 -1.69962 -4.3599 2.88915 -3.43055 -2.7219 -1.91957 0.0264805 10.2396 0.172708 -5.68886 -9.38316 1.71999 2.2384 -7.57619 2.31342 -0.409218 4.43552 -0.00291587 -0.409636 4.43551 -0.00279021 0.564589 -9.13494 -3.18658 -25.3825 9.19008 2.84269 -56.2609 44.8145 3.16397 17.7707 1.68215 -22.6297 9.04167 1.53164 -4.36064 3.18055e-015 0 1.59028e-015 3.18055e-015 0 3.18055e-015 24.6241 17.0852 18.9866 43.6227 11.6052 8.39336 -18.9929 -4.79387 57.1718 -43.1559 25.6052 33.706 3.18055e-015 -1.98785e-015 -0 3.18055e-015 -1.59028e-015 -3.18055e-015 -0.0770279 -4.4261 -2.9421 
33.1302 95.9381 -28.4375 0.409915 -0.455272 2.57511 -0.165834 2.20403 0.0279853 4.98889 -2.92184 5.20195 -0.982624 6.7979 -9.55884 3.99656 -2.6578 -0.101792 -1.77844 -4.23521 2.94125 -3.20393 -2.74793 -2.38751 -0.176448 10.2193 0.243944 -5.72157 -9.32753 1.74368 2.23379 -7.54955 2.29343 -0.330958 4.40794 0.062362 -0.332015 4.40795 0.0623018 0.188956 -9.22364 -3.28178 -25.0526 9.26191 2.96109 -56.1667 45.073 2.92279 17.3439 0.612674 -22.6618 9.47659 2.43895 -3.8231 0 0 -4.77083e-015 0 0 -3.18055e-015 24.9611 17.5068 19.9415 43.0199 5.93955 12.6897 -17.3542 -2.55143 66.9482 -51.7559 26.8472 37.6768 1.76556e-031 -3.18055e-015 3.18055e-015 3.53113e-031 -3.18056e-015 6.36111e-015 0.147829 -4.27026 -3.15521 
33.1202 95.9285 -28.4439 0.604464 -0.576548 2.90756 -0.193642 2.22043 0.0839244 4.81006 -2.80497 5.14661 -0.905875 6.63813 -9.86015 3.82705 -2.61786 -0.0982385 -1.78586 -4.18447 2.92837 -3.37756 -2.76013 -3.1519 -0.262444 10.6189 0.398667 -5.6991 -9.56644 1.97841 2.23654 -7.57153 2.31361 -0.39013 4.44053 0.175671 -0.390542 4.44053 0.175579 0.0135466 -9.16439 -3.45834 -24.8686 9.1596 3.06314 -56.0775 44.9907 2.63154 17.9851 2.16044 -22.5035 9.15901 1.45203 -4.32936 2.64834e-031 9.54166e-015 -1.59028e-015 3.53113e-031 1.27222e-014 -1.59028e-015 24.6555 17.8378 21.4334 43.592 0.945253 18.0828 -16.6931 0.536844 74.5937 -58.9247 28.0658 41.2076 3.18055e-015 -3.18055e-015 -3.18055e-015 3.18055e-015 0 -3.18055e-015 0.237987 -4.33655 -3.38112 
32.9571 95.9086 -28.5217 0.385019 -0.451565 3.3204 -0.147208 2.18024 0.113825 5.22729 -3.32859 5.67693 -1.03218 7.28331 -10.7216 3.77038 -2.91806 -0.0861421 -1.787 -4.12834 2.92257 -2.996 -2.83488 -3.39062 -0.444268 10.5943 0.427389 -5.79542 -9.48924 1.80597 2.24025 -7.58038 2.2907 -0.298751 4.36017 0.233373 -0.298918 4.36017 0.233431 -0.08828 -9.14107 -3.61691 -24.8219 9.06544 3.24635 -55.9837 44.3908 2.53815 17.7378 2.00986 -22.7237 9.58538 2.0618 -4.29536 0 0 -1.59028e-015 -3.18055e-015 0 -3.18055e-015 24.0197 18.1871 23.1574 44.1731 -0.3172 23.1815 -17.2146 1.28815 79.9827 -67.3294 29.0242 43.7216 -6.36111e-015 0 -1.59028e-015 -6.36111e-015 0 1.59028e-015 0.24686 -4.33912 -3.55885 
32.8594 95.8922 -28.5323 0.340169 -0.439398 3.70312 -0.133348 2.16285 0.131334 5.34493 -3.48848 6.01486 -1.04315 7.44069 -11.5354 4.14121 -2.70101 -0.10324 -1.6899 -4.37554 2.84243 -2.82644 -2.79039 -3.85006 -0.626756 10.6237 0.435394 -5.80116 -9.55403 1.87575 2.24024 -7.55092 2.27975 -0.271947 4.32538 0.267992 -0.271947 4.32539 0.267993 -0.252649 -9.28735 -3.72483 -24.7391 9.13759 3.50466 -55.8531 44.0353 2.45529 17.5386 2.01123 -22.8888 9.80876 2.20507 -4.20214 2.64834e-031 9.54166e-015 -1.59028e-015 0 3.18056e-015 -0 23.0671 18.6065 25.0185 45.3112 -0.726985 28.2458 -18.0572 1.35771 83.4562 -73.9914 29.7907 45.8822 -9.54166e-015 -3.18055e-015 -0 -3.18055e-015 -3.18056e-015 1.59028e-015 0.266935 -4.1795 -3.69939 
32.7336 95.8869 -28.5466 0.134416 -0.301246 4.03725 -0.0906559 2.12069 0.175802 5.72151 -3.86347 5.97775 -1.25418 7.84273 -11.7547 4.072 -2.93159 -0.0914709 -1.70089 -4.30703 2.83172 -2.49458 -2.76187 -4.07499 -0.780482 10.4116 0.468715 -5.8623 -9.41915 1.73985 2.24936 -7.58797 2.28043 -0.188023 4.24107 0.355337 -0.188022 4.24107 0.355335 -0.35272 -9.43984 -3.84136 -24.6024 9.21029 3.76872 -55.8124 44.1537 2.24619 17.6959 2.51475 -22.7229 9.71403 1.88333 -4.23734 -0 0 1.59028e-015 0 0 -3.18055e-015 21.6876 18.9185 27.0177 46.5196 -0.510989 32.7576 -18.7871 1.28494 85.3492 -77.9798 30.3987 47.6506 1.59028e-015 3.18055e-015 -7.95139e-016 0 3.18056e-015 -0 0.2338 -4.18696 -3.82189 
32.682 95.8675 -28.5422 0.0260034 -0.315394 4.37101 -0.0583768 2.10922 0.215355 5.8774 -4.07974 6.18039 -1.27356 8.20374 -12.3132 4.26072 -2.98687 -0.0948977 -1.63013 -4.38101 2.76943 -2.34095 -2.68122 -4.59978 -0.892435 10.3931 0.538739 -5.8878 -9.43899 1.79139 2.26931 -7.64709 2.29974 -0.124794 4.21349 0.433297 -0.124794 4.21348 0.433301 -0.588837 -9.47806 -3.88 -24.3875 9.20373 3.97047 -55.6953 44.3295 2.03798 17.7498 2.91046 -22.4951 9.70512 1.91775 -4.29352 3.18055e-015 0 1.59028e-015 6.36111e-015 0 -0 20.4839 19.0869 29.0818 47.0435 -0.0111137 36.3139 -18.8217 0.970483 85.9126 -81.6995 31.0054 49.7793 7.95139e-016 -6.36111e-015 -0 7.95139e-016 -6.36111e-015 3.97569e-016 0.470056 -4.23722 -3.9444 
32.6146 95.8538 -28.5268 -0.132761 -0.362047 4.61659 -0.00539088 2.10928 0.338646 6.12702 -4.2953 6.56133 -1.33407 8.64922 -13.0723 4.10523 -3.26449 -0.0815662 -1.71938 -4.28162 2.8638 -2.11275 -2.53592 -4.96912 -1.04836 10.2489 0.517807 -5.86691 -9.38319 1.82795 2.27791 -7.67562 2.31337 -0.0233449 4.21383 0.679026 -0.0232464 4.21386 0.678174 -0.567973 -9.42876 -4.11836 -24.6163 9.11415 3.97178 -55.4852 44.5641 2.08779 17.7564 2.81585 -22.5678 9.78631 1.98955 -4.28631 3.18055e-015 6.36111e-015 1.59028e-015 3.18055e-015 6.36111e-015 -0 18.9413 19.1057 31.1291 47.0546 0.652397 39.2098 -18.4435 0.313977 85.0994 -84.1423 30.9514 51.6252 3.97569e-016 3.18055e-015 -3.97569e-016 3.97569e-016 0 -3.97569e-016 0.373066 -4.38828 -4.15493 
32.5434 95.8436 -28.4969 -0.325437 -0.407667 4.91928 0.0508438 2.12651 0.375041 6.44131 -4.52481 6.92532 -1.45045 9.08676 -13.6605 4.14803 -3.52226 -0.069231 -1.69155 -4.22965 2.80528 -1.84299 -2.30877 -5.334 -1.19294 9.91318 0.556564 -5.88339 -9.27115 1.80803 2.28903 -7.72682 2.35214 0.0880138 4.25329 0.749 0.0879286 4.2533 0.748973 -0.995467 -9.77591 -4.09506 -24.4202 9.35463 4.48782 -55.1671 44.8164 2.12805 17.9955 2.624 -23.0877 9.71211 1.86271 -4.15613 0 0 -1.59028e-015 0 0 -4.77083e-015 17.7863 19.4289 33.1834 45.6955 2.39179 40.9332 -20.0918 -1.1132 83.7346 -84.6724 30.4632 50.8254 2.20695e-032 -3.18055e-015 3.97569e-016 4.41391e-032 -3.18056e-015 7.95139e-016 0.766326 -4.17094 -4.31771 
